<?xml version="1.0"?>
<svg xmlns="http://www.w3.org/2000/svg" xmlns:xlink="http://www.w3.org/1999/xlink" xmlns:svgjs="http://svgjs.com/svgjs" version="1.1" width="512" height="512" x="0" y="0" viewBox="0 0 350.001 350.001" style="enable-background:new 0 0 512 512" xml:space="preserve" class=""><g>
<g xmlns="http://www.w3.org/2000/svg">
	<path style="" d="M14.092,88.769L172.1,164.826c1.833,0.882,3.969,0.882,5.802,0L335.91,88.768   c5.051-2.429,5.051-9.621,0-12.051L177.9,0.662c-1.832-0.882-3.968-0.882-5.801,0L14.092,76.718   C9.041,79.148,9.041,86.339,14.092,88.769z" fill="#7355f7" data-original="#222a30" class=""/>
	<path style="" d="M14.092,181.024L172.1,257.082c1.833,0.882,3.969,0.882,5.802,0l158.008-76.057   c5.051-2.429,5.051-9.621,0-12.053l-33.336-16.044l-105.881,50.962c-6.726,3.236-14.228,4.946-21.692,4.946   s-14.964-1.71-21.702-4.951L47.43,152.924l-33.339,16.047C9.041,171.404,9.041,178.595,14.092,181.024z" fill="#7355f7" data-original="#222a30" class=""/>
	<path style="" d="M335.91,261.229l-33.336-16.047l-105.881,50.965c-6.726,3.236-14.228,4.946-21.692,4.946   s-14.964-1.71-21.702-4.951L47.43,245.182L14.091,261.23c-5.051,2.432-5.051,9.621,0,12.053l158.008,76.057   c1.833,0.882,3.969,0.882,5.802,0l158.008-76.057C340.961,270.85,340.961,263.66,335.91,261.229z" fill="#7355f7" data-original="#222a30" class=""/>
</g>
<g xmlns="http://www.w3.org/2000/svg">
</g>
<g xmlns="http://www.w3.org/2000/svg">
</g>
<g xmlns="http://www.w3.org/2000/svg">
</g>
<g xmlns="http://www.w3.org/2000/svg">
</g>
<g xmlns="http://www.w3.org/2000/svg">
</g>
<g xmlns="http://www.w3.org/2000/svg">
</g>
<g xmlns="http://www.w3.org/2000/svg">
</g>
<g xmlns="http://www.w3.org/2000/svg">
</g>
<g xmlns="http://www.w3.org/2000/svg">
</g>
<g xmlns="http://www.w3.org/2000/svg">
</g>
<g xmlns="http://www.w3.org/2000/svg">
</g>
<g xmlns="http://www.w3.org/2000/svg">
</g>
<g xmlns="http://www.w3.org/2000/svg">
</g>
<g xmlns="http://www.w3.org/2000/svg">
</g>
<g xmlns="http://www.w3.org/2000/svg">
</g>
</g></svg>
